<svg xmlns="http://www.w3.org/2000/svg" viewBox="0 0 301.72 193.06"><defs><style>.cls-1{fill:#f9a240;}</style></defs><g id="Capa_2" data-name="Capa 2"><g id="Object"><path class="cls-1" d="M299.28,14.28a18.53,18.53,0,0,0-5.17-4.93S267.88,0,253.26,0C231,0,214.33,8.7,195.77,19.71l-23,13.64a.47.47,0,0,1-.26,0L91.83,19.53A6.6,6.6,0,0,0,88,20L75.18,25.85a4.05,4.05,0,0,0-.09,7.34L128.46,59a.38.38,0,0,1,0,.67L73.12,92.46l-.83.5a48,48,0,0,1-34.53,5.22L9.22,91.71a7.92,7.92,0,0,0-4.37.17A7.27,7.27,0,0,0,2.36,104.1l32.05,29.4A17.64,17.64,0,0,0,53,136.85l15.93-6.47,90.59-38.14,128-53.89C300.19,33.2,305.11,22.75,299.28,14.28Z"/><path class="cls-1" d="M183.65,93.65l-38,15.88L138.48,141a3,3,0,0,0,2.85,3.61l3.73,0a14.78,14.78,0,0,0,12.61-6.85Z"/><rect class="cls-1" x="76.15" y="173.75" width="169.75" height="19.32"/></g></g></svg>