<?xml version="1.0" encoding="utf-8"?>
<!-- Generator: Adobe Illustrator 25.2.1, SVG Export Plug-In . SVG Version: 6.00 Build 0)  -->
<svg version="1.1" id="Capa_1" xmlns="http://www.w3.org/2000/svg" xmlns:xlink="http://www.w3.org/1999/xlink" x="0px" y="0px"
	 viewBox="0 0 300 120" style="enable-background:new 0 0 300 120;" xml:space="preserve">
<style type="text/css">
	.st0{fill:#FFFFFF;}
</style>
<g>
	<path class="st0" d="M24,56.5c-0.3-0.5-0.3-0.5-0.4-1.5c-0.1-0.9-0.1-1.1,0.1-1.8c0.6-2.7,2.2-6.5,4.7-11.2
		c0.6-1.2,1.1-2.1,1.1-2.2c0-0.2-0.4-0.1-2.6,0.7c-2.5,0.9-2.8,1-3.1,0.7c-0.3-0.3-0.5-0.8-0.5-1.1c0.1-0.3,0.8-0.9,1.4-1.1
		c0.3-0.1,0.8-0.2,1.2-0.3c0.7-0.1,0.8-0.1,1.2,0.1l0.5,0.2l1.2-0.3c1.9-0.5,1.7-0.3,2.6-1.8c1.9-2.9,3.6-5.3,6.1-8.4
		c0.9-1.1,1.6-2,1.6-2.1c0,0-0.1-0.1-0.2-0.1c-0.3,0-4.7,1.5-7.1,2.4c-2.5,1-3.4,1.2-4.1,1.3c-1,0.1-1.7-0.3-1.8-1.2
		c-0.1-1.1,1.1-1.8,4.5-2.9c4-1.1,5.2-1.3,5.2-0.6l0,0.2l0.4,0c0.5-0.1,4.7-1.1,4.9-1.2c0.1,0,0.4-0.4,0.8-0.7
		c0.3-0.3,0.7-0.6,0.9-0.7c0.4-0.2,0.8,0,1.1,0.3c0.1,0.2,0.3,0.3,0.4,0.3c0.1,0,1-0.1,2-0.3c3.2-0.6,4.7-0.9,6.9-1.1
		c3.1-0.3,4.5-0.1,4.9,0.6c0.2,0.4,0.2,0.7-0.2,1.2c-0.2,0.3-0.4,0.4-0.6,0.4c-0.3,0-0.6-0.1-0.6-0.4c0-0.1,0.1-0.3,0.3-0.5
		c0.5-0.6,0.3-0.8-0.8-0.9c-1.9-0.1-6.2,0.6-10.3,1.6c-1.9,0.5-1.7,0.4-2.2,1.2c-0.6,1.1-1.1,1.7-3.6,4.6c-2.2,2.6-5,6.2-5.2,6.6
		c-0.2,0.4,0,0.4,2-0.1c2.7-0.6,4.5-0.9,5.4-0.9c0.8,0,0.9,0,1,0.2c0.3,0.2,0.3,0.3,0.1,0.5c-0.1,0.2-0.3,0.2-1.3,0.3
		c-1.1,0.1-1.2,0.1-1.4-0.1c-0.3-0.2-0.5-0.2-3.2,0.5c-3,0.8-3.7,1-4,1.3c-0.4,0.4-2.3,3.3-3.4,5c-1.7,2.8-3,5.2-3.9,7.5
		c-1.1,2.8-1.2,4.5-0.2,4.9c0.5,0.2,1.7,0.1,2.8-0.3c1.9-0.6,3.8-1.5,8.3-4.1c5.9-3.4,8.7-4.7,10-4.9c0.5-0.1,0.6-0.1,0.8,0.1
		c0.2,0.1,0.2,0.2,0.2,0.4c0,0.3,0,0.3-0.3,0.5c-0.2,0.1-0.8,0.4-1.4,0.6c-0.6,0.2-1.3,0.5-1.5,0.6c-0.4,0.2-0.5,0.2-0.8,0.1
		c-0.3-0.1-0.3,0-1.5,0.6c-0.7,0.4-1.9,1.1-2.7,1.7c-4.3,2.7-5.2,3.3-6.5,4.1c-2.4,1.4-4.5,2.3-5.7,2.5c-0.9,0.2-1,0.2-1.5,0.2
		C25.4,57.8,24.5,57.3,24,56.5z M34.7,25.9C34.5,25.9,34.5,25.9,34.7,25.9c0-0.1,0.1-0.2,0.2-0.2c0.1,0,0.1,0,0.1,0.1
		C34.9,25.8,34.8,25.8,34.7,25.9z"/>
	<path class="st0" d="M48.3,47.9c0.3-2.1,3-7.4,5.3-10.5c0.9-1.2,1.3-1.6,1.8-1.7c0.2,0,0.5-0.1,0.6,0c0.3,0.1,0.7,0.4,0.8,0.7
		c0.3,0.6,0,1.2-2.6,5.3c-0.9,1.5-1.9,3.1-2.2,3.5c-0.4,0.8-0.6,1.3-0.5,1.3c0.1,0,0.6-0.5,1.8-1.7c2.3-2.4,3.7-3.5,4.5-3.6
		c0.3,0,0.4,0,0.7,0.2c0.4,0.3,0.5,0.5,1,2.3c0.7,2.3,1.7,2.6,3.7,1c0.9-0.7,1.5-1.3,2.2-2.2c0.6-0.6,0.8-0.8,0.9-0.6
		c0.2,0.5-2.3,3.2-3.8,4.2c-0.8,0.5-1.6,0.6-2.2,0.4c-1-0.4-1.6-1.4-2-3.4c-0.3-1.3-0.4-1.5-1-1.2c-0.8,0.5-2.7,2.6-5.7,6.3
		c-0.6,0.8-1.2,1.4-1.3,1.5c-0.4,0.3-1,0.3-1.4,0.1C48.3,49.7,48.1,49,48.3,47.9z"/>
	<path class="st0" d="M65.4,45.9c-0.6-1.6,0.3-4.4,2.1-6.7c2-2.5,4.6-3.9,6.2-3.4c0.6,0.2,0.9,0.6,1,1.2c0.1,0.6-0.1,1.1-0.7,1.9
		c-0.9,1.1-2.1,1.8-2.4,1.7c-0.2-0.1-0.2-0.2,0.4-0.8c0.9-0.9,1.3-1.7,0.9-1.8c-0.2-0.1-0.7,0.3-1.5,0.9c-2.3,1.8-4,4.4-4,6.2
		c0,1,0.5,1.4,1.7,1.3c1.2-0.1,2.5-0.6,4.3-1.7c1.1-0.7,3.2-2.2,4-2.9c0.5-0.4,0.7-0.6,0.7-0.4c0,0.2-0.2,0.4-0.8,1
		c-2.2,2.2-4.7,4.1-6.3,4.8c-1.4,0.6-2.6,0.8-3.6,0.6C66.5,47.4,65.8,46.8,65.4,45.9z"/>
	<path class="st0" d="M77.1,45.2c-0.3-1.3,0-3.3,1-5.8c0.7-1.8,1.4-2.8,2.2-3.3c1-0.6,2.3-0.2,2.6,0.8c0.2,0.7,0.1,1.2-0.7,2.3
		c-1.5,2.1-3.1,5.6-2.6,6c0.2,0.2,0.5,0.1,1.2-0.3c0.8-0.5,1.3-1,2.6-2.6c1.6-2,1.9-2.3,2.2-3.1c0.1-0.4,0.3-0.8,0.4-0.9
		c0.4-0.6,0.9-0.7,1.3-0.4c0.4,0.3,0.4,0.7,0.1,1.8c-0.3,1-0.4,1.8-0.3,2.2c0.2,0.6,0.9,0.8,2,0.5c1.7-0.4,3.4-1.5,4.8-3.2
		c0.8-0.8,1-1,1.1-0.6c0,0.2-0.4,0.7-1.7,1.9c-2.6,2.5-4.6,3.6-6,3.3c-1-0.2-1.6-0.8-1.9-1.7c-0.2-0.6-0.3-0.8-0.4-0.7
		c0,0-0.5,0.6-0.9,1.3c-2.1,3.2-3.9,4.6-5.4,4.2C77.9,46.8,77.4,46.1,77.1,45.2z"/>
	<path class="st0" d="M104.8,40.9c-3.4,3.2-5.5,4.7-7.5,5.3c-0.7,0.2-1.1,0.2-1.7,0.2c-1.3-0.1-2.3-1.1-2.6-2.5
		c-0.5-2.6,1.4-6.5,4.3-8.9c1.1-0.9,2.1-1.3,3.1-1.3c1.2,0,1.9,1,1.5,2.2c-0.5,1.7-3.2,4.2-5.7,5.2c-0.3,0.1-0.6,0.3-0.7,0.4
		c-0.1,0.1-0.2,0.5-0.3,0.9c-0.2,0.8-0.1,1.6,0.2,1.9c0.9,0.9,3.4-0.1,6.8-2.5c1.7-1.2,3.6-2.8,4.5-3.8c0.4-0.4,0.5-0.5,0.6-0.3
		C107.5,38.1,106.8,39,104.8,40.9z M97.6,38.7c0.9-0.7,2.1-2.1,2-2.5c0-0.4-1.4,0.8-2.3,2.1C96.7,39.2,96.8,39.4,97.6,38.7z"/>
	<path class="st0" d="M150.2,24.2c-0.2,0.3-0.7,0.3-1.5,0c-1.1-0.4-1.5-0.4-3.4-0.2c-3.1,0.2-8.5,1.1-8.9,1.4
		c-0.1,0.1-0.6,0.9-1.1,1.7c-0.5,0.9-1.4,2.5-2,3.5c-3.1,5.2-4.6,7.8-5.6,9.8c-1.2,2.2-2.3,4.7-2.6,5.4l-0.1,0.4l0.3,0.2
		c0.2,0.2,0.3,0.3,0.3,0.4c0,0.4-0.7,1-1.2,1c-0.2,0-0.3,0-0.6-0.2c-0.4-0.3-0.5-0.7-0.4-1.4c0.1-1,0.4-2,1.1-3.9
		c1.6-4.2,4.5-10,6.8-14.2c1-1.8,1-1.9,0.6-1.8c-0.4,0-2.3,0.6-2.5,0.8c-0.5,0.4-3.2,3.8-6,7.7c-3.9,5.3-5.2,6.8-6.2,7.2
		c-0.4,0.2-0.5,0.2-0.8,0.1c-0.6-0.2-0.9-0.7-1-1.8c0-0.7,0-1.4,0.3-3.4c0.1-0.7,0.2-1.3,0.1-1.4c-0.1-0.3-0.5-0.1-1.1,0.3
		c-1.6,1.2-3,2.7-5.8,6.3c-2.1,2.7-2.3,2.9-3,3c-0.6,0-1-0.4-1.1-1.2c-0.2-1.9,2.7-8.5,4.5-10.5c0.6-0.7,1-0.9,1.6-1
		c0.5,0,0.8,0.1,1.1,0.4c0.5,0.5,0.6,1.2,0.2,1.9c-0.1,0.3-0.7,1.3-1.3,2.3c-1.6,2.6-1.7,2.9-1.7,3c0,0,0,0.1,0.1,0.1
		c0,0,0.5-0.5,1.1-1.1c1.8-2,2.7-2.9,3.9-3.8c1.1-0.9,1.8-1.1,2.2-0.7c0.3,0.3,0.4,0.5,0.5,1.1c0,0.6,0,1-0.3,3
		c-0.2,1.4-0.2,2.2,0.1,2.4c0.5,0.3,1.9-1.2,6-6.3c1.1-1.4,2.9-3.6,3.9-4.8s1.8-2.3,1.8-2.3c0-0.3-0.3-0.2-5.3,1.5
		c-3.7,1.2-4.2,1.4-4.6,1.1c-0.4-0.3-0.5-0.9-0.2-1.4c0.5-0.7,2.7-1.7,3.6-1.6c0.1,0,0.4,0.2,0.6,0.3l0.3,0.3l1.6-0.5
		c0.9-0.3,2.5-0.7,3.5-1c1-0.3,2-0.5,2.1-0.5c0.1,0,0.6-0.6,1.2-1.3c1.3-1.5,3.1-3.3,3.8-4c1.2-1.1,1.8-1.4,2.3-1.2
		c0.8,0.3,0.8,1.5,0,3.7c-0.3,0.7-0.4,1-0.3,1.1c0.1,0.1,0.6,0,1.8-0.2c3.6-0.5,9.1-0.9,10.7-0.6C150.3,23.5,150.5,23.8,150.2,24.2z
		 M134.8,21.7c-1.2,1-3.6,3.4-3.6,3.5c0,0.2,0,0.2,0.9,0c1.1-0.2,1.1-0.2,2-1.5c0.4-0.7,0.9-1.4,1.2-1.7
		C135.8,21.2,135.7,21.1,134.8,21.7z"/>
	<path class="st0" d="M132.6,39.4c0.7-2.5,2.5-6.3,3.9-8c0.9-1.1,1.4-1.4,2.1-1.3c0.8,0.2,1.3,0.9,1.1,1.8c-0.1,0.6-0.4,1.2-1.1,2.3
		c-0.7,1.1-0.8,1.4-0.7,1.4c0.1,0.1,0.3-0.1,1.3-1.1c2.1-2.1,2.8-2.8,3.8-3.3c0.6-0.3,1.4-0.4,1.7-0.3c0.6,0.2,1,0.8,0.9,1.2
		c-0.1,0.6-0.6,0.7-1.2,0.2c-0.5-0.4-0.7-0.4-1.4-0.1c-2.2,1-4.2,3.1-7,7.4c-0.6,0.9-1.2,1.8-1.3,2c-0.4,0.5-0.9,0.6-1.3,0.5
		C132.5,41.8,132.2,40.8,132.6,39.4z"/>
	<path class="st0" d="M163.6,33.6c0.1,0.5-0.8,1.6-2.5,3.1c-2.8,2.5-4.9,3.1-6.6,1.8c-0.7-0.5-1.2-1.4-1.6-2.5
		c0-0.1-0.1-0.2-0.2-0.3c-0.2-0.1-0.9,0.6-2.3,2.3c-2.8,3.4-4,4.3-5.1,3.8c-1-0.3-1.3-1.6-0.9-3.1c0.3-1.2,1.6-3.6,2.8-5.4
		c1.7-2.5,3.4-3.9,5-4.1c0.8-0.1,1.4,0.1,1.8,0.5c0.5,0.5,0.7,0.9,0.7,1.7c0,0.6,0,0.7-0.4,1.7l-0.4,1l0.2,0.9
		c0.3,1.2,0.5,1.7,1.1,2.1c0.7,0.6,1.7,0.7,3,0.1c1.3-0.6,3.5-2.2,4.5-3.3C163.3,33.3,163.5,33.2,163.6,33.6z M152.3,32.5
		c-0.2,0-1.2,0.9-1.9,1.7c-1,1.1-2.8,4-3,4.6c-0.1,0.2,0,0.3,0.4,0.1c0.6-0.4,2.1-2,3.6-3.8c0.9-1.1,1-1.2,1.1-1.7
		C152.6,32.8,152.5,32.5,152.3,32.5z"/>
</g>
<g>
	<path class="st0" d="M54,101.2c0.2-1.6,1-5.1,1.8-7.2c2-5.8,5.7-13.1,10-20c0.8-1.2,1.4-2.3,1.4-2.4c0-0.2-0.1-0.2-0.5-0.2
		c-0.7,0.1-4.6,1.2-8.1,2.4c-1.9,0.6-3.3,1-3.7,1.1c-0.6,0-0.7,0-1.1-0.3c-0.3-0.3-0.4-0.5-0.5-0.9c0-0.4,0-0.6,0.4-1
		c0.9-1,3.9-2.2,5.9-2.4c1-0.1,1.2-0.1,1.7,0.1l0.5,0.2l1.7-0.4c1-0.2,2.5-0.6,3.4-0.8s1.8-0.4,1.9-0.5c0.1-0.1,1-1.1,1.8-2.2
		c2.2-2.9,4.3-5.1,5.7-5.9c1.4-0.8,2.9-0.3,3,1c0.1,0.9-0.2,1.3-2.4,4.3c-0.6,0.8-1.1,1.5-1.1,1.6c0,0.1,1.6,0,6-0.3
		c6.9-0.5,8.1-0.5,9,0.1c0.2,0.1,0.3,0.3,0.3,0.5c0.1,0.7-0.7,0.8-2.1,0.2l-1-0.4L85.7,68c-3.6,0.2-10.8,1.3-11.4,1.7
		c-0.1,0.1-0.8,0.8-1.5,1.5c-1.3,1.5-2.1,2.3-2.9,2.9c-0.7,0.6-3.5,4.6-6.2,9c-1.6,2.5-4.1,7.2-5.3,9.6c-2.2,4.5-3.5,8.7-3.3,10.5
		c0,0.5,0.3,0.9,0.5,0.9c0.1,0,0.2,0.1,0.3,0.2c0.1,0.2,0.1,0.3-0.1,0.5c-0.2,0.3-0.6,0.3-1.1,0.2C54,104.7,53.7,103.3,54,101.2z"/>
	<path class="st0" d="M68.5,90.7c-0.5-1.9,0-4.8,1.5-8.5c1.1-2.6,2.1-4.2,3.2-4.9c1.5-0.9,3.3-0.4,3.9,1.2c0.3,1,0.1,1.7-1.1,3.4
		c-2.3,3.1-4.5,8.2-3.8,8.8c0.3,0.3,0.8,0.2,1.7-0.4c1.2-0.7,2-1.5,3.8-3.7c2.4-2.9,2.7-3.4,3.2-4.5c0.2-0.6,0.4-1.2,0.6-1.3
		c0.5-0.9,1.3-1.1,2-0.6c0.6,0.4,0.6,1,0.1,2.6c-0.4,1.4-0.6,2.6-0.4,3.3c0.3,0.9,1.3,1.2,2.9,0.8c2.4-0.6,4.9-2.2,7.1-4.6
		c1.1-1.2,1.5-1.4,1.6-0.9c0.1,0.3-0.6,1.1-2.5,2.8c-3.9,3.7-6.7,5.2-8.8,4.8c-1.4-0.3-2.4-1.1-2.8-2.4c-0.3-0.9-0.4-1.2-0.6-1.1
		c-0.1,0-0.7,0.9-1.3,1.8c-3.1,4.6-5.8,6.7-7.8,6.2C69.6,93,68.8,92,68.5,90.7z"/>
	<path class="st0" d="M127.5,106.1c-0.6-0.5-0.4-1.5,0.5-4.1c2.7-7.3,8.7-19.1,16.3-32.3c1.2-2,2.1-3.8,2.1-3.9
		c0-0.1-0.1-0.2-0.2-0.3c-0.6-0.2-11.4,1.6-16.9,2.8c-2.5,0.5-3.1,0.7-3.3,1c-0.6,0.7-5.1,7.9-6.9,11.3c-1.6,2.9-3.3,6.4-3.2,6.7
		c0,0.1,0.1,0.3,0.2,0.4c0.1,0.1,0.2,0.2,0.2,0.3c0,0.2-1.3,3.6-1.6,4.1c-0.3,0.5-1,0.8-1.5,0.7c-1.4-0.5-0.9-3.3,1.8-10.1
		c1.2-3.2,2.4-5.9,4-9.1c0.6-1.3,1.1-2.4,1.1-2.6c0-0.3-0.3-0.3-3.7,0.7c-4.1,1.1-5.1,1.3-5.8,1.1c-1.2-0.3-1.6-1.6-0.9-2.5
		c0.4-0.5,1.6-1.1,3.4-1.7c0.8-0.2,1.9-0.6,2.4-0.8c1.3-0.5,2.1-0.7,3.5-0.9c1.2-0.2,1.5-0.2,1.5,0.1c0,0.2-0.2,0.3-1.3,0.8
		c-1.3,0.5-1.6,0.7-1.3,0.8c0.2,0.1,3.1-0.4,3.6-0.6c0.3-0.1,0.6-0.5,1.6-2.3c0.7-1.2,1.8-3,2.4-4.1c1.9-3.1,2-3.3,1.2-2.9
		c-0.4,0.2-0.7,0.1-0.7-0.2c0-0.5,1.4-2.3,3.6-4.7c1.3-1.4,2.1-1.7,3.1-1.1c0.3,0.2,0.7,0.4,1,0.5c0.9,0.2,1.4,0.8,1.5,1.8
		c0,0.3,0,0.7-0.2,1c-0.3,0.8-2.1,3.5-4.9,7.5c-1.1,1.7-2,3-2,3.2c0,0.2-0.3,0.3,5.8-0.6c3.4-0.5,9.5-1.2,11.9-1.4
		c1.9-0.2,1.6,0.1,3.3-2.7c5.9-9.8,9-14.3,10.3-15.3c0.6-0.4,2.1-0.8,2.7-0.6c0.5,0.1,1.2,0.7,1.6,1.3c0.8,1.2,0.3,3.6-1.1,5.9
		c-1.1,1.6-5.5,7.1-5.8,7.1c-0.1,0-0.3-0.1-0.4-0.2c-0.2-0.2-0.3-0.2-0.4-0.1c-0.2,0.1-2.6,3.3-2.7,3.8c-0.2,0.4,0.1,0.5,1.7,0.5
		c3.2,0,4.6,0.2,5,0.6c0.3,0.3,0.3,0.9,0,1.2c-0.4,0.4-2.5,0.4-3.5,0c-0.3-0.1-0.3-0.2-0.3-0.5s0-0.4-0.2-0.5
		c-0.3-0.1-3.4,0-3.7,0.2c-0.6,0.4-8.1,11.9-12.1,18.5c-4,6.7-8.7,15.3-8.7,15.8c0,0.2,0.1,0.2,0.4,0.2c0.4,0,0.7,0.1,0.7,0.5
		c0,0.3-2.5,5.2-3,5.8c-0.4,0.4-0.8,0.6-1.4,0.6C127.9,106.4,127.7,106.2,127.5,106.1z"/>
	<path class="st0" d="M170.6,74.9c0.1,0.6-0.9,1.4-2.7,2.1c-0.9,0.4-1.2,0.4-2.6,0.5c-1.3,0.1-1.8,0.1-2.6,0
		c-0.6-0.1-1.1-0.2-1.2-0.1c-0.1,0-0.4,0.7-0.8,1.5c-2.2,4.6-5.4,7.5-7.6,6.9c-0.7-0.2-1-0.5-1.5-1c-0.9-1.2-0.9-3.5,0.1-6.1
		c1.1-2.8,2.7-5.3,4.6-7.1c2.2-2.2,3.8-2.7,5-1.7c0.9,0.8,1.3,2.8,0.9,4.7c-0.2,1.3-0.2,1.5,0.2,1.6c2.1,0.6,6,0,7.4-1.1
		C170.2,74.6,170.5,74.6,170.6,74.9z M159.9,76.7c0-0.3-1.2-1.3-1.4-1.2c-0.2,0-0.9,0.9-2,2.4c-0.8,1.2-1.4,2.3-1.9,3.6
		c-0.7,1.9-0.4,2.2,0.9,1.2c0.8-0.6,1.7-1.5,2.6-2.8C159,78.7,159.9,77,159.9,76.7z M161.1,73.1c-0.1-0.7-0.4-0.6-1.1,0.2
		c-0.8,0.9-0.8,1.1-0.2,1.7c0.5,0.4,0.6,0.4,0.8,0.1C160.9,74.8,161.1,73.6,161.1,73.1z"/>
	<path class="st0" d="M167,80.7c1-3.6,3.7-9.3,5.7-11.8c1.3-1.6,2-2.1,3.1-1.9c1.2,0.2,1.9,1.3,1.6,2.6c-0.1,0.9-0.5,1.8-1.5,3.4
		c-1,1.6-1.2,2-1.1,2.1c0.1,0.1,0.5-0.2,1.9-1.7c3-3.1,4.2-4.1,5.6-4.8c0.9-0.4,2-0.6,2.5-0.4c0.8,0.3,1.4,1.1,1.3,1.7
		c-0.2,0.9-0.8,1-1.7,0.3c-0.7-0.5-1.1-0.6-2.1-0.1c-3.2,1.4-6.1,4.5-10.2,10.9c-0.9,1.4-1.7,2.7-1.9,2.9c-0.6,0.7-1.3,0.9-1.9,0.7
		C166.9,84.2,166.4,82.8,167,80.7z"/>
	<path class="st0" d="M186.9,81.9c-1.8-1.7-1.5-5.6,0.8-9.9c2-3.6,4.5-5.1,6-3.6c0.3,0.3,0.4,0.5,0.4,1l0.1,0.7l-1.3,1.6
		c-2.8,3.3-4.6,7.7-3.5,8.6c0.2,0.2,0.3,0.2,1,0.1c1.1-0.2,2.1-0.6,3.9-1.8c2.4-1.5,5.9-4.1,7.9-5.9c0.4-0.4,0.9-0.7,0.9-0.7
		c0.1,0,0.2,0.1,0.2,0.3c0.1,0.4-0.8,1.4-3.2,3.5c-4.8,4.2-7.4,6.2-9.3,6.8c-0.7,0.2-1.9,0.4-2.4,0.3
		C187.9,82.7,187.4,82.4,186.9,81.9z M194.5,60.4c0.2-1.6,2.4-2.1,3.2-0.7c0.8,1.2-0.3,2.8-1.8,2.6
		C195.2,62.2,194.4,61.2,194.5,60.4z"/>
	<path class="st0" d="M220.1,71.5c0,0.1-1,0.7-2.2,1.5c-3.2,2-7.6,5.1-8,5.6c-0.1,0.1-0.2,0.6-0.3,1.2c-0.2,1.1-1,3.3-1.7,4.6
		c-1.5,2.6-3.7,5-5.8,6.1c-1,0.6-2.5,0.8-3,0.5c-0.9-0.4-1.2-0.9-1.3-1.9c-0.2-2,1.4-3.8,6.5-7.8c1-0.7,1.9-1.5,2-1.6
		c0.5-0.5,0.6-1.3,0.4-3.4c-0.1-1-0.1-2-0.1-2.1c0-0.1,0.4-0.5,0.8-0.9c1.6-1.4,5.5-5.1,6-5.8c0.6-0.8,1-1.7,0.9-1.9
		c-0.2-0.4-1.4-0.1-2.9,0.7c-1.8,0.9-5.6,4-7.2,5.8c-0.9,1-1.3,1.3-2,1.4c-1.4,0.1-2.3-0.9-2.1-2.2c0.2-0.9,3-3.3,4.9-4.6
		c3-1.9,6.6-3.2,8.6-3.1c1.6,0.2,2.4,0.7,2.5,1.8c0,0.4,0,0.8-0.3,1.2c-0.7,1.5-4.1,5.1-6.4,6.6c-0.4,0.3-0.8,0.7-0.9,0.8
		c0,0.1,0.2,0.6,0.4,1c0.3,0.4,0.6,1,0.6,1.3c0.2,0.9,0.2,1,3.7-1.2C217.1,72.8,220,71.2,220.1,71.5z M203.3,83.5
		c-2.5,2-3.5,3.1-4,4.3c-0.2,0.5-0.2,1.1,0,1.3c0.2,0.2,0.3,0.2,1-0.2c1.6-0.9,3.5-3.2,4.7-5.5C205.8,81.7,205.4,81.7,203.3,83.5z"
		/>
	<path class="st0" d="M248.5,76.4c0.5,0.4,0.6,0.8,0.3,0.9c-0.6,0.3-1.5,0-1.9-0.6c-0.5-1-0.5-2.3,0-5.4c0.4-2.5,0.4-3.4-0.1-3.8
		c-0.3-0.2-0.4-0.3-0.9-0.2c-0.7,0.2-2.3,1.1-3.6,2.1c-2.3,1.8-5.6,5.5-7.1,7.8c-0.9,1.5-1.3,1.9-2.2,2c-0.7,0.1-1.2,0-1.7-0.6
		c-0.8-0.9-0.6-3,0.6-5.4c0.3-0.7,1.7-3.1,3.1-5.3c3.1-5,3.6-5.9,2.8-6.3c-0.4-0.1-1.5,0.1-2.6,0.5c-2.6,1.1-6,3.7-6.5,5
		c-0.1,0.2-0.3,1.1-0.5,2c-0.2,1.1-0.5,2.2-0.9,3.1c-1.3,3.3-4.2,7-6.1,7.9c-0.8,0.4-1.7,0.5-2.3,0.3c-0.6-0.2-1.1-0.6-1.4-1.2
		c-0.3-0.4-0.3-0.7-0.4-1.8c-0.1-1.2-0.1-1.5,0.2-2.5c0.4-1.6,1.1-3.4,2.1-5.2c2.1-4,4.3-6.1,6.5-6.3c1-0.1,1.6,0.2,2.4,0.9
		c0.7,0.7,0.5,0.7,2.1-0.6c2.2-1.8,5.4-3.5,7.1-3.8c1.3-0.3,2.6,0.2,3.1,1.2c0.3,0.6,0.5,1.8,0.3,2.8c-0.2,1.2-0.8,3.1-1.7,5
		c-0.8,1.8-0.9,2.3-0.6,2.3c0.1,0,1.3-0.9,2.5-1.9c2.9-2.3,4-3,5-3.1c0.9-0.1,1.3,0,1.8,0.5c0.9,0.9,1,2.6,0.5,6.6
		c-0.1,0.8-0.2,1.7-0.3,2.1C248.1,76,248.2,76.1,248.5,76.4z M227.4,67.8c-0.1-0.2-0.5-0.2-1,0.1c-0.5,0.3-3.1,3.5-3.9,4.9
		c-1.1,1.8-1.8,3.5-2,4.7c-0.1,0.4-0.1,0.6,0.1,0.7c0.2,0.3,0.3,0.2,1.2-0.3c0.9-0.5,2.6-2.5,3.6-4.2
		C226.5,71.8,227.6,68.4,227.4,67.8z"/>
	<path class="st0" d="M248.3,84.6c0.2-1.6,1-5.1,1.8-7.2c2-5.8,5.7-13.1,10-20c0.8-1.2,1.4-2.3,1.4-2.4c0-0.2-0.1-0.2-0.5-0.2
		c-0.7,0.1-4.6,1.2-8.1,2.4c-1.9,0.6-3.3,1-3.7,1.1c-0.6,0-0.7,0-1.1-0.3c-0.3-0.3-0.4-0.5-0.5-0.9c0-0.4,0-0.6,0.4-1
		c0.9-1,3.9-2.2,5.9-2.4c1-0.1,1.2-0.1,1.7,0.1l0.5,0.2l1.7-0.4c1-0.2,2.5-0.6,3.4-0.8c0.9-0.2,1.8-0.4,1.9-0.5s1-1.1,1.8-2.2
		c2.2-2.9,4.3-5.1,5.7-5.9c1.4-0.8,2.9-0.3,3,1c0.1,0.9-0.2,1.3-2.4,4.3c-0.6,0.8-1.1,1.5-1.1,1.6c0,0.1,1.6,0,6-0.3
		c6.9-0.5,8.1-0.5,9,0.1c0.2,0.1,0.3,0.3,0.3,0.5c0.1,0.7-0.7,0.8-2.1,0.2l-1-0.4l-2.4,0.2c-3.6,0.2-10.8,1.3-11.4,1.7
		c-0.1,0.1-0.8,0.8-1.5,1.5c-1.3,1.5-2.1,2.3-2.9,2.9c-0.7,0.6-3.5,4.6-6.2,9c-1.6,2.5-4.1,7.2-5.3,9.6c-2.2,4.5-3.5,8.7-3.3,10.5
		c0,0.5,0.3,0.9,0.5,0.9c0.1,0,0.2,0.1,0.3,0.2c0.1,0.2,0.1,0.3-0.1,0.5c-0.2,0.3-0.6,0.3-1.1,0.2C248.3,88.1,248.1,86.7,248.3,84.6
		z"/>
	<path class="st0" d="M279.9,69.8c-5,4.7-8,6.9-11,7.7c-1.1,0.3-1.7,0.4-2.4,0.3c-1.9-0.2-3.4-1.7-3.8-3.6c-0.8-3.8,2-9.5,6.4-13
		c1.6-1.3,3.1-2,4.5-2c1.8,0,2.7,1.4,2.2,3.3c-0.7,2.5-4.8,6.2-8.3,7.7c-0.5,0.2-0.9,0.5-1,0.6c-0.1,0.1-0.3,0.7-0.4,1.3
		c-0.3,1.2-0.2,2.3,0.3,2.7c1.3,1.3,5-0.1,9.9-3.6c2.4-1.8,5.3-4.1,6.6-5.5c0.6-0.6,0.8-0.7,0.9-0.4C284,65.6,282.8,67,279.9,69.8z
		 M269.5,66.6c1.4-1.1,3-3.1,3-3.6c-0.1-0.6-2.1,1.2-3.4,3C268.1,67.3,268.3,67.6,269.5,66.6z"/>
</g>
</svg>
