<svg width="192" height="57" viewBox="0 0 192 57" fill="none" xmlns="http://www.w3.org/2000/svg">
<g clip-path="url(#clip0_1228_2313)">
<path d="M25.4056 25.322V12.3259H20.5508V23.6817H9.02653V12.3259H4.17174V23.6817H1.35156V28.6341H4.17174V43.3652H9.02653V28.6341H20.5508V43.3652H25.2877C24.1644 40.6287 23.5438 37.632 23.5438 34.4776C23.5438 31.2207 24.2115 28.1294 25.4056 25.322ZM81.22 20.4406C81.0943 22.0651 79.1304 24.3836 71.9739 27.8061V16.7341H77.5121C78.282 16.7341 79.6881 16.8524 80.4658 17.6647C81 18.2325 81.33 19.0842 81.22 20.4406ZM82.0684 43.3652H86.9232V34.4776C86.9232 30.5425 84.9357 27.8692 83.2153 26.2841C85.0614 24.3993 86.0276 22.4988 86.0748 20.5746C86.1455 17.9092 85.4306 15.7642 83.9459 14.2106C82.4297 12.6177 80.1987 11.7739 77.5121 11.7739H67.1269V26.4103C68.0461 28.9259 68.5488 31.6387 68.5488 34.4776C68.5488 37.3166 68.0461 40.0373 67.1269 42.545V43.3652H71.7853L71.9032 33.2632C74.8098 31.9936 77.2686 30.7081 79.2796 29.3991C80.3009 30.1482 82.0605 31.8201 82.0605 34.4776V43.3652H82.0684ZM90.2147 43.3652H95.1166V12.0104H90.2147V43.3652ZM105.101 38.7282L118.44 11.7896H98.958V16.7184H110.592L97.4026 43.3652H117.49V38.7282H105.101ZM141.748 27.5695C141.748 33.5865 137.93 38.4758 133.24 38.4758C128.55 38.4758 124.732 33.5865 124.732 27.5695C124.732 21.5604 128.55 16.6711 133.24 16.6711C137.93 16.6711 141.748 21.5604 141.748 27.5695ZM146.469 27.5695C146.469 18.8949 140.53 11.8448 133.24 11.8448C125.942 11.8448 120.011 18.9028 120.011 27.5695C120.011 36.2362 125.95 43.2942 133.24 43.2942C140.53 43.3021 146.469 36.2441 146.469 27.5695ZM167.506 43.3652H172.33V23.6186C172.33 17.0732 167.114 11.7423 160.696 11.7423C154.285 11.7423 149.061 17.0732 149.061 23.6186V43.3652H153.885V23.6186C153.885 19.786 156.941 16.6711 160.696 16.6711C164.451 16.6711 167.506 19.7939 167.506 23.6186V43.3652ZM192 16.6711V12.0104H174.082V16.6711H180.563V43.3652H185.527V16.6711H192Z" fill="#445362"/>
<path d="M8.65227 6.82134H6.09133C5.92636 6.75037 5.53358 6.54533 5.53358 5.95388C5.53358 5.16528 5.53358 4.26628 8.37732 4.26628L8.65227 4.27416V6.82134ZM10.4984 2.6733C10.4984 0.883182 8.91151 0.173442 8.07881 0.0472661L5.34504 0.0314941V1.91625H7.85885C8.00025 1.94779 8.40875 2.06608 8.58157 2.37364H8.39304C6.37413 2.37364 3.6875 2.74428 3.6875 5.94599C3.6875 7.72823 5.03867 8.50894 5.75354 8.67455L5.85566 8.69821H9.57924H10.5062H11.331V6.82134H10.5062V2.6733H10.4984Z" fill="#F9A240"/>
<path d="M15.5883 0H13.7422V8.66671H15.5883V0Z" fill="#F9A240"/>
<path d="M25.0567 1.47468C24.6011 0.607221 23.7134 0.0394287 22.7786 0.0394287C21.9851 0.0394287 21.341 0.339097 20.8461 0.733397C20.1155 0.126175 19.1178 0.149833 19 0.157719L19.0707 2.04247C19.2514 2.04247 19.5813 2.09767 19.6992 2.21596C19.7149 2.22385 19.7463 2.25539 19.7463 2.38946V8.6746H21.5924V2.64969C21.7652 2.39734 22.158 1.92418 22.7786 1.92418C23.0221 1.92418 23.2892 2.10556 23.4227 2.35791C23.5327 2.56295 23.5249 2.75221 23.4149 2.91782L24.9467 3.97454C25.4338 3.22537 25.4809 2.29482 25.0567 1.47468Z" fill="#F9A240"/>
<path d="M0 46.4486L5.94673 46.3697L11.9013 46.3145L23.7948 46.1962L47.5895 46.0464C55.5159 45.9833 63.4501 45.9991 71.3843 45.9754L95.1791 45.9281L118.974 45.9754L130.875 45.9991L136.822 46.007L142.769 46.0464L166.563 46.1962L178.457 46.3145L184.411 46.3776L190.358 46.4565L184.411 46.5353L178.457 46.5984L166.563 46.7167L142.769 46.8665L136.822 46.906L130.875 46.9139L118.974 46.9375L95.1791 46.9848L71.3843 46.9375C63.458 46.9139 55.5238 46.9296 47.5895 46.8665L23.7948 46.7167L11.9013 46.5984L5.94673 46.5432L0 46.4486Z" fill="#445362"/>
<path d="M28.627 48.3017C32.657 53.5932 38.9572 57 46.0351 57C53.1131 57 59.4133 53.5932 63.4433 48.3017H28.627ZM23.9922 34.4933C23.9922 37.5768 24.5971 40.5182 25.6969 43.1916H66.3656C67.4654 40.5182 68.0703 37.5768 68.0703 34.4933C68.0703 22.065 58.2036 11.9867 46.0273 11.9867C33.8667 11.9867 23.9922 22.065 23.9922 34.4933Z" fill="#F9A240"/>
</g>
<defs>
<clipPath id="clip0_1228_2313">
<rect width="192" height="57" fill="white"/>
</clipPath>
</defs>
</svg>
